<?xml version="1.0" encoding="utf-8" ?>
<svg baseProfile="tiny" height="2250" version="1.2" width="778" xmlns="http://www.w3.org/2000/svg" xmlns:ev="http://www.w3.org/2001/xml-events" xmlns:xlink="http://www.w3.org/1999/xlink"><defs /><rect fill="white" height="12" opacity="0.3" rx="1" ry="1" stroke="black" width="54" x="0" y="15" /><text fill="black" font-family="Trebuchet MS" font-size="12" x="1" y="27">Name</text><rect fill="red" height="12" opacity="0.8" rx="1" ry="1" stroke="red" width="54" x="56" y="15" /><text fill="black" font-family="Trebuchet MS" font-size="12" x="57" y="27">Power</text><rect fill="black" height="12" opacity="0.9" rx="1" ry="1" stroke="black" width="54" x="112" y="15" /><text fill="white" font-family="Trebuchet MS" font-size="12" x="113" y="27">GND</text><rect fill="yellow" height="12" opacity="0.7" rx="1" ry="1" stroke="yellow" width="54" x="168" y="15" /><text fill="black" font-family="Trebuchet MS" font-size="12" x="169" y="27">Control</text><rect fill="green" height="12" opacity="0.3" rx="1" ry="1" stroke="green" width="54" x="224" y="15" /><text fill="black" font-family="Trebuchet MS" font-size="12" x="225" y="27">ADC</text><rect fill="blue" height="12" opacity="0.4" rx="1" ry="1" stroke="blue" width="54" x="280" y="15" /><text fill="black" font-family="Trebuchet MS" font-size="12" x="281" y="27">I2C/Wire</text><rect fill="purple" height="12" opacity="0.4" rx="1" ry="1" stroke="purple" width="54" x="336" y="15" /><text fill="black" font-family="Trebuchet MS" font-size="12" x="337" y="27">CAN </text><rect fill="yellow" height="12" opacity="0.3" rx="1" ry="1" stroke="yellow" width="54" x="392" y="15" /><text fill="black" font-family="Trebuchet MS" font-size="12" x="393" y="27">PWM</text><rect fill="grey" height="12" opacity="0.3" rx="1" ry="1" stroke="grey" width="54" x="448" y="15" /><text fill="black" font-family="Trebuchet MS" font-size="12" x="449" y="27">Serial</text><rect fill="purple" height="12" opacity="0.2" rx="1" ry="1" stroke="purple" width="54" x="504" y="15" /><text fill="black" font-family="Trebuchet MS" font-size="12" x="505" y="27">Ext Interrupt</text><rect fill="orange" height="12" opacity="0.5" rx="1" ry="1" stroke="orange" width="54" x="560" y="15" /><text fill="black" font-family="Trebuchet MS" font-size="12" x="561" y="27">I2C</text><rect fill="slategray" height="12" opacity="0.3" rx="1" ry="1" stroke="black" width="54" x="616" y="15" /><text fill="black" font-family="Trebuchet MS" font-size="10" x="617" y="27">JTAG</text><rect fill="blue" height="12" opacity="0.1" rx="1" ry="1" stroke="blue" width="54" x="672" y="15" /><text fill="black" font-family="Trebuchet MS" font-size="12" x="673" y="27">SPI</text><rect fill="white" height="12" opacity="0.3" rx="1" ry="1" stroke="black" width="54" x="0" y="30" /><text fill="black" font-family="Trebuchet MS" font-size="12" x="1" y="42">white</text><rect fill="red" height="12" opacity="0.8" rx="1" ry="1" stroke="red" width="54" x="56" y="30" /><text fill="black" font-family="Trebuchet MS" font-size="12" x="57" y="42">red</text><rect fill="black" height="12" opacity="0.9" rx="1" ry="1" stroke="black" width="54" x="112" y="30" /><text fill="white" font-family="Trebuchet MS" font-size="12" x="113" y="42">black</text><rect fill="yellow" height="12" opacity="0.7" rx="1" ry="1" stroke="yellow" width="54" x="168" y="30" /><text fill="black" font-family="Trebuchet MS" font-size="12" x="169" y="42">yellow</text><rect fill="green" height="12" opacity="0.3" rx="1" ry="1" stroke="green" width="54" x="224" y="30" /><text fill="black" font-family="Trebuchet MS" font-size="12" x="225" y="42">green</text><rect fill="blue" height="12" opacity="0.4" rx="1" ry="1" stroke="blue" width="54" x="280" y="30" /><text fill="black" font-family="Trebuchet MS" font-size="12" x="281" y="42">purple</text><rect fill="purple" height="12" opacity="0.4" rx="1" ry="1" stroke="purple" width="54" x="336" y="30" /><text fill="black" font-family="Trebuchet MS" font-size="12" x="337" y="42">mgnta</text><rect fill="yellow" height="12" opacity="0.3" rx="1" ry="1" stroke="yellow" width="54" x="392" y="30" /><text fill="black" font-family="Trebuchet MS" font-size="12" x="393" y="42">ltyello</text><rect fill="grey" height="12" opacity="0.3" rx="1" ry="1" stroke="grey" width="54" x="448" y="30" /><text fill="black" font-family="Trebuchet MS" font-size="12" x="449" y="42">grey</text><rect fill="purple" height="12" opacity="0.2" rx="1" ry="1" stroke="purple" width="54" x="504" y="30" /><text fill="black" font-family="Trebuchet MS" font-size="12" x="505" y="42">pink</text><rect fill="orange" height="12" opacity="0.5" rx="1" ry="1" stroke="orange" width="54" x="560" y="30" /><text fill="black" font-family="Trebuchet MS" font-size="12" x="561" y="42">orange</text><rect fill="slategray" height="12" opacity="0.3" rx="1" ry="1" stroke="black" width="54" x="616" y="30" /><text fill="black" font-family="Trebuchet MS" font-size="10" x="617" y="42">slategray</text><rect fill="blue" height="12" opacity="0.1" rx="1" ry="1" stroke="blue" width="54" x="672" y="30" /><text fill="black" font-family="Trebuchet MS" font-size="12" x="673" y="42">ltgey</text><rect fill="white" height="12" opacity="0.3" rx="1" ry="1" stroke="black" width="54" x="0" y="60" /><text fill="black" font-family="Trebuchet MS" font-size="12" x="1" y="72">3V3</text><rect fill="red" height="12" opacity="0.8" rx="1" ry="1" stroke="red" width="54" x="56" y="60" /><text fill="black" font-family="Trebuchet MS" font-size="12" x="57" y="72">3V3</text><rect fill="white" height="12" opacity="0.3" rx="1" ry="1" stroke="black" width="54" x="0" y="75" /><text fill="black" font-family="Trebuchet MS" font-size="12" x="1" y="87">RST</text><rect fill="yellow" height="12" opacity="0.7" rx="1" ry="1" stroke="yellow" width="54" x="56" y="75" /><text fill="black" font-family="Trebuchet MS" font-size="12" x="57" y="87">RST</text><rect fill="white" height="12" opacity="0.3" rx="1" ry="1" stroke="black" width="54" x="0" y="90" /><text fill="black" font-family="Trebuchet MS" font-size="12" x="1" y="102">VBAT</text><rect fill="red" height="12" opacity="0.8" rx="1" ry="1" stroke="red" width="54" x="56" y="90" /><text fill="black" font-family="Trebuchet MS" font-size="12" x="57" y="102">VBAT</text><rect fill="white" height="12" opacity="0.3" rx="1" ry="1" stroke="black" width="54" x="0" y="105" /><text fill="black" font-family="Trebuchet MS" font-size="12" x="1" y="117">GND</text><rect fill="black" height="12" opacity="0.9" rx="1" ry="1" stroke="black" width="54" x="56" y="105" /><text fill="white" font-family="Trebuchet MS" font-size="12" x="57" y="117">GND</text><rect fill="white" height="12" opacity="0.3" rx="1" ry="1" stroke="black" width="54" x="0" y="120" /><text fill="black" font-family="Trebuchet MS" font-size="12" x="1" y="132">D7</text><rect fill="slategray" height="12" opacity="0.3" rx="1" ry="1" stroke="black" width="54" x="56" y="120" /><text fill="black" font-family="Trebuchet MS" font-size="10" x="57" y="132">JTAG_TMS</text><rect fill="white" height="12" opacity="0.3" rx="1" ry="1" stroke="black" width="54" x="0" y="135" /><text fill="black" font-family="Trebuchet MS" font-size="12" x="1" y="147">D6</text><rect fill="slategray" height="12" opacity="0.3" rx="1" ry="1" stroke="black" width="54" x="56" y="135" /><text fill="black" font-family="Trebuchet MS" font-size="10" x="57" y="147">JTAG_TCK</text><rect fill="white" height="12" opacity="0.3" rx="1" ry="1" stroke="black" width="54" x="0" y="150" /><text fill="black" font-family="Trebuchet MS" font-size="12" x="1" y="162">D5</text><rect fill="orange" height="12" opacity="0.5" rx="1" ry="1" stroke="orange" width="54" x="56" y="150" /><text fill="black" font-family="Trebuchet MS" font-size="12" x="57" y="162">I2S_WS</text><rect fill="slategray" height="12" opacity="0.3" rx="1" ry="1" stroke="black" width="54" x="112" y="150" /><text fill="black" font-family="Trebuchet MS" font-size="10" x="113" y="162">JTAG_TDI</text><rect fill="blue" height="12" opacity="0.1" rx="1" ry="1" stroke="blue" width="54" x="168" y="150" /><text fill="black" font-family="Trebuchet MS" font-size="12" x="169" y="162">SPI3_SS</text><rect fill="white" height="12" opacity="0.3" rx="1" ry="1" stroke="black" width="54" x="0" y="165" /><text fill="black" font-family="Trebuchet MS" font-size="12" x="1" y="177">D4</text><rect fill="orange" height="12" opacity="0.5" rx="1" ry="1" stroke="orange" width="54" x="56" y="165" /><text fill="black" font-family="Trebuchet MS" font-size="12" x="57" y="177">I2S_SCK</text><rect fill="slategray" height="12" opacity="0.3" rx="1" ry="1" stroke="black" width="54" x="112" y="165" /><text fill="black" font-family="Trebuchet MS" font-size="10" x="113" y="177">JTAG_TDO</text><rect fill="blue" height="12" opacity="0.1" rx="1" ry="1" stroke="blue" width="54" x="168" y="165" /><text fill="black" font-family="Trebuchet MS" font-size="12" x="169" y="177">SPI3_SCK</text><rect fill="white" height="12" opacity="0.3" rx="1" ry="1" stroke="black" width="54" x="0" y="180" /><text fill="black" font-family="Trebuchet MS" font-size="12" x="1" y="192">D3</text><rect fill="purple" height="12" opacity="0.2" rx="1" ry="1" stroke="purple" width="54" x="56" y="180" /><text fill="black" font-family="Trebuchet MS" font-size="12" x="57" y="192">TIM3_CH1</text><rect fill="slategray" height="12" opacity="0.3" rx="1" ry="1" stroke="black" width="54" x="112" y="180" /><text fill="black" font-family="Trebuchet MS" font-size="10" x="113" y="192">JTAG_TRST</text><rect fill="blue" height="12" opacity="0.1" rx="1" ry="1" stroke="blue" width="54" x="168" y="180" /><text fill="black" font-family="Trebuchet MS" font-size="12" x="169" y="192">SPI3_MISO</text><rect fill="white" height="12" opacity="0.3" rx="1" ry="1" stroke="black" width="54" x="0" y="195" /><text fill="black" font-family="Trebuchet MS" font-size="12" x="1" y="207">D2</text><rect fill="purple" height="12" opacity="0.4" rx="1" ry="1" stroke="purple" width="54" x="56" y="195" /><text fill="black" font-family="Trebuchet MS" font-size="12" x="57" y="207">CAN2_RX</text><rect fill="purple" height="12" opacity="0.2" rx="1" ry="1" stroke="purple" width="54" x="112" y="195" /><text fill="black" font-family="Trebuchet MS" font-size="12" x="113" y="207">TIM3_CH2</text><rect fill="blue" height="12" opacity="0.1" rx="1" ry="1" stroke="blue" width="54" x="168" y="195" /><text fill="black" font-family="Trebuchet MS" font-size="12" x="169" y="207">SPI3_MOSI</text><rect fill="white" height="12" opacity="0.3" rx="1" ry="1" stroke="black" width="54" x="0" y="210" /><text fill="black" font-family="Trebuchet MS" font-size="12" x="1" y="222">D1</text><rect fill="blue" height="12" opacity="0.4" rx="1" ry="1" stroke="blue" width="54" x="56" y="210" /><text fill="black" font-family="Trebuchet MS" font-size="12" x="57" y="222">SCL</text><rect fill="purple" height="12" opacity="0.4" rx="1" ry="1" stroke="purple" width="54" x="112" y="210" /><text fill="black" font-family="Trebuchet MS" font-size="12" x="113" y="222">CAN2_TX</text><rect fill="purple" height="12" opacity="0.2" rx="1" ry="1" stroke="purple" width="54" x="168" y="210" /><text fill="black" font-family="Trebuchet MS" font-size="12" x="169" y="222">TIM4_CH1</text><rect fill="white" height="12" opacity="0.3" rx="1" ry="1" stroke="black" width="54" x="0" y="225" /><text fill="black" font-family="Trebuchet MS" font-size="12" x="1" y="237">D0</text><rect fill="blue" height="12" opacity="0.4" rx="1" ry="1" stroke="blue" width="54" x="56" y="225" /><text fill="black" font-family="Trebuchet MS" font-size="12" x="57" y="237">SDA</text><rect fill="purple" height="12" opacity="0.2" rx="1" ry="1" stroke="purple" width="54" x="112" y="225" /><text fill="black" font-family="Trebuchet MS" font-size="12" x="113" y="237">TIM4_CH2</text><rect fill="white" height="12" opacity="0.3" rx="1" ry="1" stroke="black" width="54" x="722" y="255" /><text fill="black" font-family="Trebuchet MS" font-size="12" x="723" y="267">VIN</text><rect fill="red" height="12" opacity="0.8" rx="1" ry="1" stroke="red" width="54" x="666" y="255" /><text fill="black" font-family="Trebuchet MS" font-size="12" x="667" y="267">VIN</text><rect fill="white" height="12" opacity="0.3" rx="1" ry="1" stroke="black" width="54" x="722" y="270" /><text fill="black" font-family="Trebuchet MS" font-size="12" x="723" y="282">GND</text><rect fill="black" height="12" opacity="0.9" rx="1" ry="1" stroke="black" width="54" x="666" y="270" /><text fill="white" font-family="Trebuchet MS" font-size="12" x="667" y="282">GND</text><rect fill="white" height="12" opacity="0.3" rx="1" ry="1" stroke="black" width="54" x="722" y="285" /><text fill="black" font-family="Trebuchet MS" font-size="12" x="723" y="297">TX</text><rect fill="blue" height="12" opacity="0.4" rx="1" ry="1" stroke="blue" width="54" x="666" y="285" /><text fill="black" font-family="Trebuchet MS" font-size="12" x="667" y="297">UART1_TX</text><rect fill="purple" height="12" opacity="0.2" rx="1" ry="1" stroke="purple" width="54" x="610" y="285" /><text fill="black" font-family="Trebuchet MS" font-size="12" x="611" y="297">TIM1_CH2</text><rect fill="white" height="12" opacity="0.3" rx="1" ry="1" stroke="black" width="54" x="722" y="300" /><text fill="black" font-family="Trebuchet MS" font-size="12" x="723" y="312">RX</text><rect fill="blue" height="12" opacity="0.4" rx="1" ry="1" stroke="blue" width="54" x="666" y="300" /><text fill="black" font-family="Trebuchet MS" font-size="12" x="667" y="312">UART1_RX</text><rect fill="purple" height="12" opacity="0.2" rx="1" ry="1" stroke="purple" width="54" x="610" y="300" /><text fill="black" font-family="Trebuchet MS" font-size="12" x="611" y="312">TIM1_CH3</text><rect fill="white" height="12" opacity="0.3" rx="1" ry="1" stroke="black" width="54" x="722" y="315" /><text fill="black" font-family="Trebuchet MS" font-size="12" x="723" y="327">WKP</text><rect fill="green" height="12" opacity="0.3" rx="1" ry="1" stroke="green" width="54" x="666" y="315" /><text fill="black" font-family="Trebuchet MS" font-size="12" x="667" y="327">ADC0</text><rect fill="purple" height="12" opacity="0.2" rx="1" ry="1" stroke="purple" width="54" x="610" y="315" /><text fill="black" font-family="Trebuchet MS" font-size="12" x="611" y="327">TIM5_CH1</text><rect fill="white" height="12" opacity="0.3" rx="1" ry="1" stroke="black" width="54" x="722" y="330" /><text fill="black" font-family="Trebuchet MS" font-size="12" x="723" y="342">DAC</text><rect fill="green" height="12" opacity="0.3" rx="1" ry="1" stroke="green" width="54" x="666" y="330" /><text fill="black" font-family="Trebuchet MS" font-size="12" x="667" y="342">ADC4</text><rect fill="orange" height="12" opacity="0.5" rx="1" ry="1" stroke="orange" width="54" x="610" y="330" /><text fill="black" font-family="Trebuchet MS" font-size="12" x="611" y="342">DAC1</text><rect fill="white" height="12" opacity="0.3" rx="1" ry="1" stroke="black" width="54" x="722" y="345" /><text fill="black" font-family="Trebuchet MS" font-size="12" x="723" y="357">A5</text><rect fill="green" height="12" opacity="0.3" rx="1" ry="1" stroke="green" width="54" x="666" y="345" /><text fill="black" font-family="Trebuchet MS" font-size="12" x="667" y="357">ADC7</text><rect fill="purple" height="12" opacity="0.2" rx="1" ry="1" stroke="purple" width="54" x="610" y="345" /><text fill="black" font-family="Trebuchet MS" font-size="12" x="611" y="357">TIM3_CH2</text><rect fill="blue" height="12" opacity="0.1" rx="1" ry="1" stroke="blue" width="54" x="554" y="345" /><text fill="black" font-family="Trebuchet MS" font-size="12" x="555" y="357">SPI1_MOSI</text><rect fill="white" height="12" opacity="0.3" rx="1" ry="1" stroke="black" width="54" x="722" y="360" /><text fill="black" font-family="Trebuchet MS" font-size="12" x="723" y="372">A4</text><rect fill="green" height="12" opacity="0.3" rx="1" ry="1" stroke="green" width="54" x="666" y="360" /><text fill="black" font-family="Trebuchet MS" font-size="12" x="667" y="372">ADC6</text><rect fill="purple" height="12" opacity="0.2" rx="1" ry="1" stroke="purple" width="54" x="610" y="360" /><text fill="black" font-family="Trebuchet MS" font-size="12" x="611" y="372">TIM3_CH1</text><rect fill="blue" height="12" opacity="0.1" rx="1" ry="1" stroke="blue" width="54" x="554" y="360" /><text fill="black" font-family="Trebuchet MS" font-size="12" x="555" y="372">SPI1_MISO</text><rect fill="white" height="12" opacity="0.3" rx="1" ry="1" stroke="black" width="54" x="722" y="375" /><text fill="black" font-family="Trebuchet MS" font-size="12" x="723" y="387">A3</text><rect fill="green" height="12" opacity="0.3" rx="1" ry="1" stroke="green" width="54" x="666" y="375" /><text fill="black" font-family="Trebuchet MS" font-size="12" x="667" y="387">ADC5</text><rect fill="orange" height="12" opacity="0.5" rx="1" ry="1" stroke="orange" width="54" x="610" y="375" /><text fill="black" font-family="Trebuchet MS" font-size="12" x="611" y="387">DAC2</text><rect fill="blue" height="12" opacity="0.1" rx="1" ry="1" stroke="blue" width="54" x="554" y="375" /><text fill="black" font-family="Trebuchet MS" font-size="12" x="555" y="387">SPI1_SCK</text><rect fill="white" height="12" opacity="0.3" rx="1" ry="1" stroke="black" width="54" x="722" y="390" /><text fill="black" font-family="Trebuchet MS" font-size="12" x="723" y="402">A2</text><rect fill="green" height="12" opacity="0.3" rx="1" ry="1" stroke="green" width="54" x="666" y="390" /><text fill="black" font-family="Trebuchet MS" font-size="12" x="667" y="402">ADC12</text><rect fill="blue" height="12" opacity="0.1" rx="1" ry="1" stroke="blue" width="54" x="610" y="390" /><text fill="black" font-family="Trebuchet MS" font-size="12" x="611" y="402">SPI1_SS</text><rect fill="white" height="12" opacity="0.3" rx="1" ry="1" stroke="black" width="54" x="722" y="405" /><text fill="black" font-family="Trebuchet MS" font-size="12" x="723" y="417">A1</text><rect fill="green" height="12" opacity="0.3" rx="1" ry="1" stroke="green" width="54" x="666" y="405" /><text fill="black" font-family="Trebuchet MS" font-size="12" x="667" y="417">ADC13</text><rect fill="white" height="12" opacity="0.3" rx="1" ry="1" stroke="black" width="54" x="722" y="420" /><text fill="black" font-family="Trebuchet MS" font-size="12" x="723" y="432">A0</text><rect fill="green" height="12" opacity="0.3" rx="1" ry="1" stroke="green" width="54" x="666" y="420" /><text fill="black" font-family="Trebuchet MS" font-size="12" x="667" y="432">ADC15</text><text fill="black" font-family="Trebuchet MS" font-size="12" x="0" y="450">Power</text><text fill="black" font-family="Trebuchet MS" font-size="12" x="0" y="467">Raw:5V-16V (6V-12V recommended)</text><text fill="black" font-family="Trebuchet MS" font-size="12" x="0" y="484">VCC:5V</text><text fill="black" font-family="Trebuchet MS" font-size="12" x="0" y="501">Maximum current: 150mA @5V</text><text fill="black" font-family="Trebuchet MS" font-size="12" x="0" y="533">LEDs</text><text fill="black" font-family="Trebuchet MS" font-size="12" x="0" y="550">Power: Red</text><text fill="black" font-family="Trebuchet MS" font-size="12" x="0" y="567">User (D13): Green</text><text fill="black" font-family="Trebuchet MS" font-size="12" x="0" y="599">Arduino Pro Mini (DEV-11113)</text><text fill="black" font-family="Trebuchet MS" font-size="12" x="0" y="616">Programmed as Arduino Pro Mini w/ ATMega328</text><text fill="black" font-family="Trebuchet MS" font-size="12" x="0" y="633">16MHz/ 5V</text><text fill="black" font-family="Trebuchet MS" font-size="12" x="0" y="680">Reset Button</text><image x="0" xlink:href="../Images/ATMega328.png" y="680" /><image x="250" xlink:href="../Images/Logo.png" y="680" /><image x="500" xlink:href="../Images/Legend.png" y="680" /><image x="0" xlink:href="../Images/FTDI.png" y="680" /></svg>